<svg width="542" height="371" viewBox="0 0 542 371" fill="none" xmlns="http://www.w3.org/2000/svg">
<g clip-path="url(#clip0)">
<path d="M536.924 241.596H161.483C160.137 241.595 158.847 241.072 157.895 240.143C156.943 239.213 156.408 237.953 156.407 236.639V9.54382H542V236.639C541.998 237.953 541.463 239.213 540.512 240.143C539.56 241.072 538.27 241.595 536.924 241.596Z" fill="#E6E6E6"/>
<path d="M525.915 227.404H172.491C171.131 227.403 169.827 226.875 168.865 225.935C167.903 224.996 167.362 223.722 167.36 222.393V35.3722C167.362 34.0437 167.903 32.7701 168.865 31.8307C169.827 30.8913 171.131 30.3628 172.491 30.3613H525.915C527.276 30.3628 528.58 30.8912 529.542 31.8306C530.504 32.77 531.045 34.0437 531.046 35.3722V222.393C531.045 223.722 530.504 224.996 529.542 225.935C528.58 226.875 527.276 227.403 525.915 227.404Z" fill="white"/>
<path d="M541.836 16.5565H156.243V4.95702C156.244 3.64278 156.779 2.3828 157.731 1.45349C158.683 0.524188 159.973 0.00146351 161.318 0H536.76C538.106 0.00146351 539.396 0.524188 540.347 1.45349C541.299 2.3828 541.834 3.64278 541.836 4.95702L541.836 16.5565Z" fill="#4B4FA1"/>
<path d="M168.696 11.4185C170.37 11.4185 171.727 10.093 171.727 8.45795C171.727 6.82288 170.37 5.49741 168.696 5.49741C167.021 5.49741 165.664 6.82288 165.664 8.45795C165.664 10.093 167.021 11.4185 168.696 11.4185Z" fill="white"/>
<path d="M180.202 11.4185C181.876 11.4185 183.234 10.093 183.234 8.45795C183.234 6.82288 181.876 5.49741 180.202 5.49741C178.528 5.49741 177.171 6.82288 177.171 8.45795C177.171 10.093 178.528 11.4185 180.202 11.4185Z" fill="white"/>
<path d="M191.709 11.4185C193.383 11.4185 194.74 10.093 194.74 8.45795C194.74 6.82288 193.383 5.49741 191.709 5.49741C190.035 5.49741 188.677 6.82288 188.677 8.45795C188.677 10.093 190.035 11.4185 191.709 11.4185Z" fill="white"/>
<path d="M240.11 63.8973H203.684V79.6431H240.11V63.8973Z" fill="#E6E6E6"/>
<path d="M312.962 96.5552H276.536V112.301H312.962V96.5552Z" fill="#E6E6E6"/>
<path d="M240.11 145.542H203.684V161.288H240.11V145.542Z" fill="#4B4FA1"/>
<path d="M312.962 178.2H276.536V193.946H312.962V178.2Z" fill="#4B4FA1"/>
<path d="M494.495 194.529H458.069V210.275H494.495V194.529Z" fill="#4B4FA1"/>
<path d="M458.069 129.213H421.643V144.959H458.069V129.213Z" fill="#E6E6E6"/>
<path d="M385.814 129.213H312.962V144.959H385.814V129.213Z" fill="#4B4FA1"/>
<path d="M385.814 46.9852H312.962V62.731H385.814V46.9852Z" fill="#4B4FA1"/>
<path d="M167.258 30.073V227.77H531.518V30.073L167.258 30.073ZM530.324 46.4507H495.212V31.2394H530.324V46.4507ZM313.679 161.093V145.882H385.097V161.093H313.679ZM385.098 162.26V177.471H313.679V162.26H385.098ZM385.098 96.7497V111.961H313.679V96.7497H385.098ZM313.679 95.5834V80.3721H385.097V95.5834H313.679ZM313.679 128.338V113.127H385.097V128.338H313.679ZM385.098 129.505V144.716H313.679V129.505H385.098ZM312.485 111.961H277.372V96.7497H312.485V111.961ZM312.485 113.127V128.338H277.372V113.127H312.485ZM312.485 129.505V144.716H277.372V129.505H312.485ZM312.485 145.882V161.093H277.372V145.882H312.485ZM386.292 145.882H421.404V161.093H386.292L386.292 145.882ZM386.292 144.716V129.505H421.404V144.716H386.292ZM386.292 128.338V113.127H421.404V128.338H386.292ZM386.292 111.961V96.7497H421.404V111.961H386.292ZM386.292 95.5834V80.3721H421.404V95.5834H386.292ZM386.292 79.2057V63.9944H421.404V79.2057H386.292ZM385.098 79.2057H313.679V63.9944H385.097L385.098 79.2057ZM312.485 79.2057H277.372V63.9944H312.485V79.2057ZM312.485 80.3721V95.5834H277.372V80.3721H312.485ZM276.178 95.5834H241.065V80.3721H276.178L276.178 95.5834ZM276.178 96.7497V111.961H241.065V96.7497H276.178ZM276.178 113.127V128.338H241.065V113.127H276.178ZM276.178 129.505V144.716H241.065V129.505H276.178ZM276.178 145.882V161.093H241.065V145.882H276.178ZM276.178 162.26V177.471H241.065V162.26H276.178ZM277.372 162.26H312.485V177.471H277.372V162.26ZM312.485 178.637V193.848H277.372V178.637H312.485ZM313.679 178.637H385.097V193.848H313.679V178.637ZM386.292 178.637H421.404V193.848H386.292L386.292 178.637ZM386.292 177.471V162.26H421.404V177.471H386.292ZM422.598 162.26H457.711V177.471H422.598L422.598 162.26ZM422.598 161.093V145.882H457.711V161.093H422.598ZM422.598 144.716V129.505H457.711V144.716H422.598ZM422.598 128.338V113.127H457.711V128.338H422.598ZM422.598 111.961V96.7497H457.711V111.961H422.598ZM422.598 95.5834V80.3721H457.711V95.5834H422.598ZM422.598 79.2057V63.9944H457.711V79.2057H422.598ZM422.598 62.8281V47.617H457.711V62.8281H422.598ZM421.404 62.8281H386.292V47.617H421.404L421.404 62.8281ZM385.098 62.8281H313.679V47.617H385.097L385.098 62.8281ZM312.485 62.8281H277.372V47.617H312.485V62.8281ZM276.178 62.8281H241.065V47.617H276.178L276.178 62.8281ZM276.178 63.9944V79.2057H241.065V63.9944H276.178ZM239.871 79.2057H204.759V63.9944H239.871V79.2057ZM239.871 80.3721V95.5834H204.759V80.3721H239.871ZM239.871 96.7497V111.961H204.759V96.7497H239.871ZM239.871 113.127V128.338H204.759V113.127H239.871ZM239.871 129.505V144.716H204.759V129.505H239.871ZM239.871 145.882V161.093H204.759V145.882H239.871ZM239.871 162.26V177.471H204.759V162.26H239.871ZM239.871 178.637V193.848H204.759V178.637H239.871ZM241.065 178.637H276.178V193.848H241.065L241.065 178.637ZM276.178 195.015V210.226H241.065V195.015H276.178ZM277.372 195.015H312.485V210.226H277.372V195.015ZM313.679 195.015H385.097V210.226H313.679V195.015ZM386.292 195.015H421.404V210.226H386.292L386.292 195.015ZM422.598 195.015H457.711V210.226H422.598L422.598 195.015ZM422.598 193.848V178.637H457.711V193.848H422.598ZM458.905 178.637H494.018V193.848H458.905V178.637ZM458.905 177.471V162.26H494.018V177.471H458.905ZM458.905 161.093V145.882H494.018V161.093H458.905ZM458.905 144.716V129.505H494.018V144.716H458.905ZM458.905 128.338V113.127H494.018V128.338H458.905ZM458.905 111.961V96.7497H494.018V111.961H458.905ZM458.905 95.5834V80.3721H494.018V95.5834H458.905ZM458.905 79.2057V63.9944H494.018V79.2057H458.905ZM458.905 62.8281V47.617H494.018V62.8281H458.905ZM458.905 46.4507V31.2394H494.018V46.4507L458.905 46.4507ZM457.711 46.4507H422.598V31.2394H457.711L457.711 46.4507ZM421.404 46.4507H386.292V31.2394H421.404L421.404 46.4507ZM385.098 46.4507H313.679V31.2394H385.097L385.098 46.4507ZM312.485 46.4507H277.372V31.2394H312.485V46.4507ZM276.178 46.4507H241.065V31.2394H276.178L276.178 46.4507ZM239.871 46.4507H204.759V31.2394H239.871V46.4507ZM239.871 47.617V62.8281H204.759V47.617H239.871ZM203.565 62.8281H168.452V47.617H203.565L203.565 62.8281ZM203.565 63.9944V79.2057H168.452V63.9944H203.565ZM203.565 80.3721V95.5834H168.452V80.3721H203.565ZM203.565 96.7497V111.961H168.452V96.7497H203.565ZM203.565 113.127V128.338H168.452V113.127H203.565ZM203.565 129.505V144.716H168.452V129.505H203.565ZM203.565 145.882V161.093H168.452V145.882H203.565ZM203.565 162.26V177.471H168.452V162.26H203.565ZM203.565 178.637V193.848H168.452V178.637H203.565ZM203.565 195.015V210.226H168.452V195.015H203.565ZM204.759 195.015H239.871V210.226H204.759L204.759 195.015ZM239.871 211.393V226.604H204.759V211.393H239.871ZM241.065 211.393H276.178V226.604H241.065L241.065 211.393ZM277.372 211.393H312.485V226.604H277.372L277.372 211.393ZM313.679 211.393H385.097V226.604H313.679L313.679 211.393ZM386.292 211.393H421.404V226.604H386.292V211.393ZM422.598 211.393H457.711V226.604H422.598L422.598 211.393ZM458.905 211.393H494.018V226.604H458.905V211.393ZM458.905 210.226V195.015H494.018V210.226H458.905ZM495.212 195.015H530.324V210.226H495.212V195.015ZM495.212 193.848V178.637H530.324V193.848H495.212ZM495.212 177.471V162.26H530.324V177.471H495.212ZM495.212 161.093V145.882H530.324V161.093H495.212ZM495.212 144.716V129.505H530.324V144.716H495.212ZM495.212 128.338V113.127H530.324V128.338H495.212ZM495.212 111.961V96.7497H530.324V111.961H495.212ZM495.212 95.5834V80.3721H530.324V95.5834H495.212ZM495.212 79.2057V63.9944H530.324V79.2057H495.212ZM495.212 62.8281V47.617H530.324V62.8281H495.212ZM203.565 31.2394V46.4507H168.452V31.2394H203.565ZM168.452 211.393H203.565V226.604H168.452V211.393ZM495.212 226.604V211.393H530.324V226.604H495.212Z" fill="#E6E6E6"/>
<path d="M68.1011 137.19C68.1011 137.19 49.6734 133.043 39.5381 140.646C29.4029 148.249 52.4376 165.528 52.4376 165.528L68.1011 137.19Z" fill="#2F2E41"/>
<path d="M87.1579 236.36C86.7887 235.411 86.6373 234.393 86.7143 233.38C86.7914 232.367 87.0949 231.382 87.6037 230.496C88.1124 229.609 88.814 228.843 89.6589 228.25C90.5038 227.657 91.4716 227.252 92.494 227.064L96.2181 202.635L106.005 211.201L100.968 233.087C101.177 234.785 100.742 236.499 99.7437 237.905C98.7455 239.311 97.254 240.31 95.5518 240.714C93.8496 241.117 92.0549 240.897 90.5078 240.095C88.9608 239.292 87.7689 237.964 87.1579 236.36H87.1579Z" fill="#FFB8B8"/>
<path d="M48.5836 363.181L57.2411 362.62L59.1449 329.741L46.3677 330.569L48.5836 363.181Z" fill="#FFB8B8"/>
<path d="M74.1523 370.282H46.8834V359.993H63.6166C66.4109 359.993 69.0907 361.077 71.0665 363.006C73.0423 364.936 74.1523 367.553 74.1523 370.282Z" fill="#2F2E41"/>
<path d="M63.5454 351.477L71.6849 354.411L87.1479 325.146L75.1343 320.816L63.5454 351.477Z" fill="#FFB8B8"/>
<path d="M84.5933 367.451L59.0115 358.229L62.6599 348.577L78.3578 354.236C80.9792 355.181 83.1088 357.104 84.2782 359.582C85.4475 362.061 85.5609 364.891 84.5933 367.451L84.5933 367.451Z" fill="#2F2E41"/>
<path d="M87.2129 225.167C87.2129 225.167 95.9806 229.777 93.2828 248.22L90.585 318.037L75.6809 349.865L62.8666 346.571L71.0264 320.672L60.2354 275.224L58.82 357.769L46.6802 359.745L29.2114 222.532L51.4678 212.652L87.2129 225.167Z" fill="#2F2E41"/>
<path d="M55.8748 129.355C65.4748 129.355 73.2571 121.755 73.2571 112.379C73.2571 103.004 65.4748 95.4035 55.8748 95.4035C46.2748 95.4035 38.4924 103.004 38.4924 112.379C38.4924 121.755 46.2748 129.355 55.8748 129.355Z" fill="#FFB8B8"/>
<path d="M65.9682 133.943L57.2005 147.774L44.3862 135.26L20.4301 151.637C19.5896 152.21 18.9729 153.044 18.6807 154.004C18.3885 154.963 18.438 155.991 18.8213 156.92C22.5062 165.819 31.9428 192.123 29.2114 222.532C29.2114 222.532 47.4212 217.921 66.3054 223.191C85.1896 228.46 89.9106 226.484 89.9106 226.484C89.9106 226.484 85.1896 192.892 87.8873 185.647C90.1251 179.637 94.6831 159.579 96.1724 152.913C96.3129 152.283 96.2425 151.626 95.9714 151.039C95.7003 150.451 95.243 149.964 94.6669 149.65L65.9682 133.943Z" fill="#4B4FA1"/>
<path d="M93.9723 149.73C94.7139 149.627 95.4687 149.791 96.0955 150.191C96.7224 150.592 97.1784 151.202 97.3784 151.907L108.795 192.169L106.097 216.539L93.2829 214.563L94.6318 197.438L85.1897 175.702L91.4227 151.962C91.5741 151.386 91.8971 150.866 92.3509 150.469C92.8047 150.071 93.3689 149.815 93.9723 149.73Z" fill="#4B4FA1"/>
<path d="M42.4334 88.5494C43.5925 86.628 45.2727 85.0569 47.2886 84.0094C49.3045 82.9619 51.5776 82.4789 53.8569 82.6137C56.241 82.9057 58.5676 83.5417 60.7605 84.501L72.1237 88.8298C75.0641 89.95 78.2844 91.3221 79.5604 94.1413C80.7446 96.7579 79.8611 99.7798 78.9667 102.504L74.7153 115.453C74.2444 112.523 73.4362 109.653 72.3061 106.899C71.0712 104.192 69.118 101.695 66.4176 100.343C63.466 98.8638 59.9871 98.8944 56.6737 99.0501C51.9809 99.2707 46.8785 99.8538 43.5443 103.086C41.7743 104.922 40.5743 107.211 40.0839 109.686C39.6012 112.149 39.3582 114.65 39.3582 117.157C37.4339 113.927 35.8128 110.533 34.515 107.017C33.4474 104.399 32.8391 101.624 32.7155 98.8087C32.6039 95.9692 33.5686 93.1894 35.4249 91.0012C37.3446 88.9058 40.4726 87.7746 43.2235 88.6041" fill="#2F2E41"/>
<path d="M32.7665 246.037C33.1356 245.087 33.2871 244.069 33.21 243.056C33.133 242.043 32.8295 241.058 32.3207 240.172C31.812 239.286 31.1104 238.519 30.2655 237.926C29.4206 237.333 28.4528 236.929 27.4304 236.741L23.7063 212.311L13.9199 220.878L18.9568 242.763C18.747 244.461 19.1825 246.176 20.1807 247.581C21.1789 248.987 22.6704 249.987 24.3726 250.39C26.0748 250.794 27.8695 250.573 29.4165 249.771C30.9636 248.969 32.1555 247.64 32.7665 246.037Z" fill="#FFB8B8"/>
<path d="M20.6762 151.404C19.6548 151.57 18.7224 152.073 18.0336 152.828C17.3448 153.583 16.941 154.545 16.8893 155.555L13.0251 231.029H27.1883L31.9094 190.851L25.9012 155.059C25.8046 154.484 25.5927 153.933 25.2777 153.437C24.9626 152.942 24.5506 152.512 24.0653 152.173C23.5799 151.833 23.0307 151.591 22.4491 151.459C21.8676 151.327 21.2651 151.308 20.6762 151.404Z" fill="#4B4FA1"/>
<path d="M121.542 371H0V369.545H121.813L121.542 371Z" fill="#CCCCCC"/>
</g>
<defs>
<clipPath id="clip0">
<rect width="542" height="371" fill="white"/>
</clipPath>
</defs>
</svg>
